<svg xmlns="http://www.w3.org/2000/svg" width="1200" height="630" viewBox="0 0 1200 630">
  <rect width="1200" height="630" fill="#070908"/>
  <g opacity=".13" stroke="#f2f0e8">
    <path d="M0 105h1200M0 210h1200M0 315h1200M0 420h1200M0 525h1200"/>
    <path d="M100 0v630M200 0v630M300 0v630M400 0v630M500 0v630M600 0v630M700 0v630M800 0v630M900 0v630M1000 0v630M1100 0v630"/>
  </g>
  <g transform="translate(88 78)" fill="none" stroke="#c7ff35" stroke-width="5">
    <path d="M0 28A28 28 0 0 1 54 18M56 28A28 28 0 0 1 2 38"/>
    <circle cx="2" cy="38" r="5" fill="#c7ff35"/>
    <circle cx="54" cy="18" r="5" fill="#c7ff35"/>
  </g>
  <text x="170" y="116" fill="#f2f0e8" font-family="monospace" font-size="27" letter-spacing="3">META//SECRET</text>
  <text x="82" y="350" fill="#f2f0e8" font-family="Arial, sans-serif" font-size="94" font-weight="600" letter-spacing="-6">Your secrets.</text>
  <text x="82" y="450" fill="#c7ff35" font-family="Arial, sans-serif" font-size="94" font-weight="600" letter-spacing="-6">Your keys.</text>
  <text x="85" y="545" fill="#f2f0e8" opacity=".55" font-family="monospace" font-size="19" letter-spacing="2">OPEN-SOURCE · DEVICE-CONTROLLED · DECENTRALIZED</text>
</svg>
